<svg width="19" height="8" viewBox="0 0 19 8" fill="none" xmlns="http://www.w3.org/2000/svg">
<path d="M18.9269 3.82331L15.1769 0.0732492C15.0792 -0.0244164 14.921 -0.0244164 14.8234 0.0732492C14.7257 0.170915 14.7257 0.32912 14.8234 0.426763L18.1467 3.75006H0.250012C0.111822 3.75006 0 3.86189 0 4.00008C0 4.13827 0.111822 4.25009 0.250012 4.25009H18.1467L14.8234 7.57337C14.7257 7.67103 14.7257 7.82924 14.8234 7.92688C14.8722 7.9757 14.9362 8.00012 15.0001 8.00012C15.0641 8.00012 15.1281 7.9757 15.1769 7.92688L18.927 4.17682C19.0246 4.07918 19.0246 3.92097 18.9269 3.82331Z" fill="white"/>
</svg>
