<svg width="5" height="7" viewBox="0 0 5 7" fill="none" xmlns="http://www.w3.org/2000/svg">
<path d="M4.00078 3.22686L0.885692 0.111828C0.813644 0.0397233 0.717466 0 0.614914 0C0.512362 0 0.416184 0.0397233 0.344135 0.111828L0.114731 0.341176C-0.0345444 0.490622 -0.0345444 0.733514 0.114731 0.882733L2.73055 3.49855L0.111828 6.11727C0.0397802 6.18937 0 6.28549 0 6.38799C0 6.4906 0.0397802 6.58672 0.111828 6.65888L0.341233 6.88817C0.413338 6.96028 0.509459 7 0.612011 7C0.714563 7 0.810741 6.96028 0.88279 6.88817L4.00078 3.77029C4.073 3.69796 4.11267 3.60139 4.11244 3.49872C4.11267 3.39566 4.073 3.29914 4.00078 3.22686Z" fill="white"/>
</svg>
